<?xml version="1.0" encoding="utf-8"?>
<svg xmlns="http://www.w3.org/2000/svg" viewBox="0 0 41 41"
     width="984" height="984" shape-rendering="crispEdges">
  <title>V D Wood Upholstery - https://vdwood.co.nz/info</title>
  <rect width="41" height="41" fill="#ffffff"/>
  <g fill="#000000">
    <rect x="4" y="4" width="7" height="1"/>
    <rect x="14" y="4" width="1" height="1"/>
    <rect x="19" y="4" width="2" height="1"/>
    <rect x="27" y="4" width="2" height="1"/>
    <rect x="30" y="4" width="7" height="1"/>
    <rect x="4" y="5" width="1" height="1"/>
    <rect x="10" y="5" width="1" height="1"/>
    <rect x="15" y="5" width="1" height="1"/>
    <rect x="19" y="5" width="4" height="1"/>
    <rect x="24" y="5" width="4" height="1"/>
    <rect x="30" y="5" width="1" height="1"/>
    <rect x="36" y="5" width="1" height="1"/>
    <rect x="4" y="6" width="1" height="1"/>
    <rect x="6" y="6" width="3" height="1"/>
    <rect x="10" y="6" width="1" height="1"/>
    <rect x="18" y="6" width="1" height="1"/>
    <rect x="21" y="6" width="1" height="1"/>
    <rect x="23" y="6" width="1" height="1"/>
    <rect x="26" y="6" width="2" height="1"/>
    <rect x="30" y="6" width="1" height="1"/>
    <rect x="32" y="6" width="3" height="1"/>
    <rect x="36" y="6" width="1" height="1"/>
    <rect x="4" y="7" width="1" height="1"/>
    <rect x="6" y="7" width="3" height="1"/>
    <rect x="10" y="7" width="1" height="1"/>
    <rect x="13" y="7" width="2" height="1"/>
    <rect x="16" y="7" width="1" height="1"/>
    <rect x="18" y="7" width="2" height="1"/>
    <rect x="21" y="7" width="3" height="1"/>
    <rect x="26" y="7" width="2" height="1"/>
    <rect x="30" y="7" width="1" height="1"/>
    <rect x="32" y="7" width="3" height="1"/>
    <rect x="36" y="7" width="1" height="1"/>
    <rect x="4" y="8" width="1" height="1"/>
    <rect x="6" y="8" width="3" height="1"/>
    <rect x="10" y="8" width="1" height="1"/>
    <rect x="12" y="8" width="1" height="1"/>
    <rect x="18" y="8" width="3" height="1"/>
    <rect x="23" y="8" width="2" height="1"/>
    <rect x="27" y="8" width="1" height="1"/>
    <rect x="30" y="8" width="1" height="1"/>
    <rect x="32" y="8" width="3" height="1"/>
    <rect x="36" y="8" width="1" height="1"/>
    <rect x="4" y="9" width="1" height="1"/>
    <rect x="10" y="9" width="1" height="1"/>
    <rect x="13" y="9" width="1" height="1"/>
    <rect x="19" y="9" width="1" height="1"/>
    <rect x="21" y="9" width="1" height="1"/>
    <rect x="25" y="9" width="1" height="1"/>
    <rect x="28" y="9" width="1" height="1"/>
    <rect x="30" y="9" width="1" height="1"/>
    <rect x="36" y="9" width="1" height="1"/>
    <rect x="4" y="10" width="7" height="1"/>
    <rect x="12" y="10" width="1" height="1"/>
    <rect x="14" y="10" width="1" height="1"/>
    <rect x="16" y="10" width="1" height="1"/>
    <rect x="18" y="10" width="1" height="1"/>
    <rect x="20" y="10" width="1" height="1"/>
    <rect x="22" y="10" width="1" height="1"/>
    <rect x="24" y="10" width="1" height="1"/>
    <rect x="26" y="10" width="1" height="1"/>
    <rect x="28" y="10" width="1" height="1"/>
    <rect x="30" y="10" width="7" height="1"/>
    <rect x="12" y="11" width="2" height="1"/>
    <rect x="16" y="11" width="3" height="1"/>
    <rect x="21" y="11" width="1" height="1"/>
    <rect x="24" y="11" width="1" height="1"/>
    <rect x="27" y="11" width="1" height="1"/>
    <rect x="6" y="12" width="2" height="1"/>
    <rect x="10" y="12" width="4" height="1"/>
    <rect x="16" y="12" width="1" height="1"/>
    <rect x="18" y="12" width="2" height="1"/>
    <rect x="22" y="12" width="2" height="1"/>
    <rect x="25" y="12" width="1" height="1"/>
    <rect x="29" y="12" width="2" height="1"/>
    <rect x="32" y="12" width="1" height="1"/>
    <rect x="7" y="13" width="1" height="1"/>
    <rect x="9" y="13" width="1" height="1"/>
    <rect x="14" y="13" width="1" height="1"/>
    <rect x="16" y="13" width="2" height="1"/>
    <rect x="20" y="13" width="3" height="1"/>
    <rect x="27" y="13" width="1" height="1"/>
    <rect x="29" y="13" width="2" height="1"/>
    <rect x="33" y="13" width="1" height="1"/>
    <rect x="36" y="13" width="1" height="1"/>
    <rect x="4" y="14" width="2" height="1"/>
    <rect x="8" y="14" width="3" height="1"/>
    <rect x="14" y="14" width="3" height="1"/>
    <rect x="20" y="14" width="4" height="1"/>
    <rect x="25" y="14" width="3" height="1"/>
    <rect x="29" y="14" width="1" height="1"/>
    <rect x="33" y="14" width="4" height="1"/>
    <rect x="5" y="15" width="2" height="1"/>
    <rect x="9" y="15" width="1" height="1"/>
    <rect x="12" y="15" width="1" height="1"/>
    <rect x="15" y="15" width="1" height="1"/>
    <rect x="17" y="15" width="3" height="1"/>
    <rect x="21" y="15" width="1" height="1"/>
    <rect x="24" y="15" width="5" height="1"/>
    <rect x="30" y="15" width="4" height="1"/>
    <rect x="35" y="15" width="2" height="1"/>
    <rect x="5" y="16" width="1" height="1"/>
    <rect x="9" y="16" width="4" height="1"/>
    <rect x="14" y="16" width="2" height="1"/>
    <rect x="17" y="16" width="2" height="1"/>
    <rect x="20" y="16" width="10" height="1"/>
    <rect x="31" y="16" width="1" height="1"/>
    <rect x="35" y="16" width="1" height="1"/>
    <rect x="4" y="17" width="3" height="1"/>
    <rect x="11" y="17" width="1" height="1"/>
    <rect x="13" y="17" width="2" height="1"/>
    <rect x="20" y="17" width="1" height="1"/>
    <rect x="23" y="17" width="3" height="1"/>
    <rect x="31" y="17" width="2" height="1"/>
    <rect x="34" y="17" width="1" height="1"/>
    <rect x="4" y="18" width="1" height="1"/>
    <rect x="7" y="18" width="1" height="1"/>
    <rect x="9" y="18" width="5" height="1"/>
    <rect x="15" y="18" width="1" height="1"/>
    <rect x="17" y="18" width="1" height="1"/>
    <rect x="19" y="18" width="2" height="1"/>
    <rect x="24" y="18" width="2" height="1"/>
    <rect x="30" y="18" width="1" height="1"/>
    <rect x="34" y="18" width="1" height="1"/>
    <rect x="6" y="19" width="1" height="1"/>
    <rect x="8" y="19" width="1" height="1"/>
    <rect x="11" y="19" width="2" height="1"/>
    <rect x="14" y="19" width="2" height="1"/>
    <rect x="19" y="19" width="1" height="1"/>
    <rect x="21" y="19" width="2" height="1"/>
    <rect x="25" y="19" width="2" height="1"/>
    <rect x="29" y="19" width="2" height="1"/>
    <rect x="32" y="19" width="2" height="1"/>
    <rect x="35" y="19" width="1" height="1"/>
    <rect x="8" y="20" width="4" height="1"/>
    <rect x="13" y="20" width="1" height="1"/>
    <rect x="15" y="20" width="7" height="1"/>
    <rect x="23" y="20" width="3" height="1"/>
    <rect x="27" y="20" width="4" height="1"/>
    <rect x="32" y="20" width="2" height="1"/>
    <rect x="5" y="21" width="3" height="1"/>
    <rect x="15" y="21" width="1" height="1"/>
    <rect x="18" y="21" width="3" height="1"/>
    <rect x="22" y="21" width="1" height="1"/>
    <rect x="24" y="21" width="1" height="1"/>
    <rect x="26" y="21" width="2" height="1"/>
    <rect x="29" y="21" width="2" height="1"/>
    <rect x="32" y="21" width="1" height="1"/>
    <rect x="34" y="21" width="2" height="1"/>
    <rect x="4" y="22" width="2" height="1"/>
    <rect x="7" y="22" width="1" height="1"/>
    <rect x="9" y="22" width="2" height="1"/>
    <rect x="13" y="22" width="1" height="1"/>
    <rect x="16" y="22" width="1" height="1"/>
    <rect x="18" y="22" width="5" height="1"/>
    <rect x="31" y="22" width="2" height="1"/>
    <rect x="34" y="22" width="1" height="1"/>
    <rect x="8" y="23" width="2" height="1"/>
    <rect x="15" y="23" width="1" height="1"/>
    <rect x="17" y="23" width="4" height="1"/>
    <rect x="23" y="23" width="2" height="1"/>
    <rect x="26" y="23" width="1" height="1"/>
    <rect x="29" y="23" width="2" height="1"/>
    <rect x="32" y="23" width="1" height="1"/>
    <rect x="36" y="23" width="1" height="1"/>
    <rect x="4" y="24" width="1" height="1"/>
    <rect x="6" y="24" width="3" height="1"/>
    <rect x="10" y="24" width="1" height="1"/>
    <rect x="13" y="24" width="2" height="1"/>
    <rect x="16" y="24" width="2" height="1"/>
    <rect x="22" y="24" width="4" height="1"/>
    <rect x="29" y="24" width="1" height="1"/>
    <rect x="33" y="24" width="3" height="1"/>
    <rect x="4" y="25" width="3" height="1"/>
    <rect x="8" y="25" width="1" height="1"/>
    <rect x="12" y="25" width="1" height="1"/>
    <rect x="14" y="25" width="3" height="1"/>
    <rect x="19" y="25" width="1" height="1"/>
    <rect x="21" y="25" width="1" height="1"/>
    <rect x="23" y="25" width="2" height="1"/>
    <rect x="29" y="25" width="1" height="1"/>
    <rect x="33" y="25" width="2" height="1"/>
    <rect x="36" y="25" width="1" height="1"/>
    <rect x="8" y="26" width="1" height="1"/>
    <rect x="10" y="26" width="1" height="1"/>
    <rect x="14" y="26" width="1" height="1"/>
    <rect x="18" y="26" width="1" height="1"/>
    <rect x="20" y="26" width="1" height="1"/>
    <rect x="22" y="26" width="5" height="1"/>
    <rect x="30" y="26" width="4" height="1"/>
    <rect x="36" y="26" width="1" height="1"/>
    <rect x="5" y="27" width="2" height="1"/>
    <rect x="8" y="27" width="2" height="1"/>
    <rect x="12" y="27" width="1" height="1"/>
    <rect x="15" y="27" width="2" height="1"/>
    <rect x="18" y="27" width="2" height="1"/>
    <rect x="21" y="27" width="1" height="1"/>
    <rect x="23" y="27" width="2" height="1"/>
    <rect x="27" y="27" width="3" height="1"/>
    <rect x="31" y="27" width="3" height="1"/>
    <rect x="36" y="27" width="1" height="1"/>
    <rect x="4" y="28" width="1" height="1"/>
    <rect x="6" y="28" width="5" height="1"/>
    <rect x="12" y="28" width="2" height="1"/>
    <rect x="17" y="28" width="1" height="1"/>
    <rect x="23" y="28" width="1" height="1"/>
    <rect x="25" y="28" width="1" height="1"/>
    <rect x="27" y="28" width="7" height="1"/>
    <rect x="35" y="28" width="2" height="1"/>
    <rect x="12" y="29" width="3" height="1"/>
    <rect x="16" y="29" width="2" height="1"/>
    <rect x="20" y="29" width="1" height="1"/>
    <rect x="24" y="29" width="1" height="1"/>
    <rect x="27" y="29" width="2" height="1"/>
    <rect x="32" y="29" width="1" height="1"/>
    <rect x="34" y="29" width="2" height="1"/>
    <rect x="4" y="30" width="7" height="1"/>
    <rect x="12" y="30" width="1" height="1"/>
    <rect x="15" y="30" width="1" height="1"/>
    <rect x="17" y="30" width="1" height="1"/>
    <rect x="21" y="30" width="1" height="1"/>
    <rect x="23" y="30" width="1" height="1"/>
    <rect x="26" y="30" width="3" height="1"/>
    <rect x="30" y="30" width="1" height="1"/>
    <rect x="32" y="30" width="1" height="1"/>
    <rect x="34" y="30" width="1" height="1"/>
    <rect x="4" y="31" width="1" height="1"/>
    <rect x="10" y="31" width="1" height="1"/>
    <rect x="14" y="31" width="2" height="1"/>
    <rect x="20" y="31" width="2" height="1"/>
    <rect x="24" y="31" width="5" height="1"/>
    <rect x="32" y="31" width="5" height="1"/>
    <rect x="4" y="32" width="1" height="1"/>
    <rect x="6" y="32" width="3" height="1"/>
    <rect x="10" y="32" width="1" height="1"/>
    <rect x="13" y="32" width="3" height="1"/>
    <rect x="20" y="32" width="1" height="1"/>
    <rect x="23" y="32" width="1" height="1"/>
    <rect x="27" y="32" width="6" height="1"/>
    <rect x="34" y="32" width="2" height="1"/>
    <rect x="4" y="33" width="1" height="1"/>
    <rect x="6" y="33" width="3" height="1"/>
    <rect x="10" y="33" width="1" height="1"/>
    <rect x="12" y="33" width="2" height="1"/>
    <rect x="17" y="33" width="3" height="1"/>
    <rect x="21" y="33" width="1" height="1"/>
    <rect x="23" y="33" width="3" height="1"/>
    <rect x="27" y="33" width="1" height="1"/>
    <rect x="31" y="33" width="1" height="1"/>
    <rect x="4" y="34" width="1" height="1"/>
    <rect x="6" y="34" width="3" height="1"/>
    <rect x="10" y="34" width="1" height="1"/>
    <rect x="12" y="34" width="2" height="1"/>
    <rect x="15" y="34" width="2" height="1"/>
    <rect x="18" y="34" width="1" height="1"/>
    <rect x="20" y="34" width="2" height="1"/>
    <rect x="23" y="34" width="4" height="1"/>
    <rect x="29" y="34" width="2" height="1"/>
    <rect x="33" y="34" width="2" height="1"/>
    <rect x="4" y="35" width="1" height="1"/>
    <rect x="10" y="35" width="1" height="1"/>
    <rect x="13" y="35" width="1" height="1"/>
    <rect x="16" y="35" width="2" height="1"/>
    <rect x="19" y="35" width="6" height="1"/>
    <rect x="27" y="35" width="3" height="1"/>
    <rect x="33" y="35" width="1" height="1"/>
    <rect x="36" y="35" width="1" height="1"/>
    <rect x="4" y="36" width="7" height="1"/>
    <rect x="13" y="36" width="1" height="1"/>
    <rect x="15" y="36" width="1" height="1"/>
    <rect x="17" y="36" width="1" height="1"/>
    <rect x="20" y="36" width="2" height="1"/>
    <rect x="24" y="36" width="1" height="1"/>
    <rect x="26" y="36" width="2" height="1"/>
    <rect x="30" y="36" width="4" height="1"/>
  </g>
  <rect x="15.0" y="15.0" width="11.0" height="11.0" rx="1.6" fill="#ffffff"/>
  <rect x="16.0" y="16.0" width="9.0" height="9.0" rx="1.3" fill="#2c3e50"/>
  <g fill="#ffffff" shape-rendering="geometricPrecision">
    <g transform="translate(17.7000 21.7852) scale(0.001836 -0.001836)"><path d="M798 -32H736L268 1046Q255 1075 227 1146Q188 1242 145.0 1275.0Q102 1308 6 1310V1356H590V1310Q481 1310 443.5 1294.0Q406 1278 406 1233Q406 1204 453 1097L843 197L1156 946Q1235 1134 1235 1191Q1235 1306 1072 1310V1356H1486V1310Q1423 1308 1375.0 1265.0Q1327 1222 1292 1139L1201 926Z"/></g>
    <g transform="translate(20.4412 21.7852) scale(0.001836 -0.001836)"><path d="M48 1345 271 1356Q550 1370 647 1370Q949 1370 1118.0 1278.0Q1287 1186 1369.5 1028.5Q1452 871 1452 665Q1452 516 1407.0 392.5Q1362 269 1283.5 187.5Q1205 106 1101.5 63.5Q998 21 905.0 10.5Q812 0 643 0H42V46H98Q185 46 218.5 68.0Q252 90 261.5 136.5Q271 183 271 353V1007Q271 1169 261.5 1216.5Q252 1264 221.5 1281.5Q191 1299 88 1299H48ZM466 1317V411Q466 210 473.5 152.0Q481 94 518.5 70.5Q556 47 677 47Q854 47 968.0 95.5Q1082 144 1158.5 286.5Q1235 429 1235 650Q1235 822 1190.5 957.0Q1146 1092 1063.0 1176.5Q980 1261 879.0 1291.5Q778 1322 620 1322Q544 1322 466 1317Z"/></g>
  </g>
</svg>
